<svg xmlns="http://www.w3.org/2000/svg" viewBox="0 0 32 32" width="32" height="32">
  <defs>
    <linearGradient id="headerGradient" x1="0%" y1="0%" x2="100%" y2="0%">
      <stop offset="0%" style="stop-color:#2563eb;stop-opacity:1" />
      <stop offset="50%" style="stop-color:#1d4ed8;stop-opacity:1" />
      <stop offset="100%" style="stop-color:#0891b2;stop-opacity:1" />
    </linearGradient>
  </defs>
  
  <!-- Background circle with header gradient (no border) -->
  <circle cx="16" cy="16" r="15" fill="url(#headerGradient)"/>
  
  <!-- White waves (Lucide waves icon style) -->
  <g stroke="#ffffff" stroke-width="2" stroke-linecap="round" stroke-linejoin="round" fill="none">
    <!-- Top wave -->
    <path d="M 6 10 c 0.6 0.5 1.2 1 2.5 1 C 11 11 11 9 13.5 9 c 2.6 0 2.4 2 5 2 c 2.5 0 2.5-2 5-2 c 1.3 0 1.9 0.5 2.5 1"/>
    
    <!-- Middle wave -->
    <path d="M 6 16 c 0.6 0.5 1.2 1 2.5 1 c 2.5 0 2.5-2 5-2 c 2.6 0 2.4 2 5 2 c 2.5 0 2.5-2 5-2 c 1.3 0 1.9 0.5 2.5 1"/>
    
    <!-- Bottom wave -->
    <path d="M 6 22 c 0.6 0.5 1.2 1 2.5 1 c 2.5 0 2.5-2 5-2 c 2.6 0 2.4 2 5 2 c 2.5 0 2.5-2 5-2 c 1.3 0 1.9 0.5 2.5 1"/>
  </g>
</svg> 